<svg width="800" height="600" xmlns="http://www.w3.org/2000/svg" xmlns:svg="http://www.w3.org/2000/svg" xmlns:xlink="http://www.w3.org/1999/xlink">
 <!-- Created with SVG-edit - http://svg-edit.googlecode.com/ -->
 <defs>
  <marker refY="50" refX="50" markerHeight="5" markerWidth="5" viewBox="0 0 100 100" orient="auto" markerUnits="strokeWidth" id="se_marker_start_svg_13">
   <path stroke-width="10" stroke="#000000" fill="#000000" d="m50,0l0,100" id="svg_3"/>
  </marker>
  <marker refY="50" refX="50" markerHeight="5" markerWidth="5" viewBox="0 0 100 100" orient="auto" markerUnits="strokeWidth" id="se_marker_end_svg_14">
   <path stroke-width="10" stroke="#000000" fill="#000000" d="m100,50l-100,40l30,-40l-30,-40l100,40z" id="svg_4"/>
  </marker>
  <marker refY="50" refX="50" markerHeight="5" markerWidth="5" viewBox="0 0 100 100" orient="auto" markerUnits="strokeWidth" id="se_marker_start_svg_17">
   <path stroke-width="10" stroke="#000000" fill="#000000" d="m0,50l100,40l-30,-40l30,-40l-100,40z" id="svg_6"/>
  </marker>
  <marker refY="50" refX="50" markerHeight="5" markerWidth="5" viewBox="0 0 100 100" orient="auto" markerUnits="strokeWidth" id="se_marker_start_svg_27">
   <path stroke-width="10" stroke="#000000" fill="#000000" d="m50,0l0,100" id="svg_7"/>
  </marker>
  <marker refY="50" refX="50" markerHeight="5" markerWidth="5" viewBox="0 0 100 100" orient="auto" markerUnits="strokeWidth" id="se_marker_end_svg_28">
   <path stroke-width="10" stroke="#000000" fill="#000000" d="m100,50l-100,40l30,-40l-30,-40l100,40z" id="svg_8"/>
  </marker>
  <marker refY="50" refX="50" markerHeight="5" markerWidth="5" viewBox="0 0 100 100" se_type="rightarrow" orient="auto" markerUnits="strokeWidth" id="se_marker_end_svg_19">
   <path stroke-width="10" stroke="#000000" fill="#000000" d="m100,50l-100,40l30,-40l-30,-40z"/>
  </marker>
 </defs>
 <title>Architecture</title>
 <g>
  <title>Listener</title>
  <rect id="svg_59" height="412" width="444.99999" y="80" x="172" stroke-linecap="null" stroke-linejoin="null" stroke="#000000" fill="#9ff72c"/>
  <polygon id="svg_29" fill="none"/>
  <image x="345.66668" y="468" width="101" height="72" id="svg_26" xlink:href="https://6a1f1411b70ea966ae7d011616f2d38c2be1f67d-www.googledrive.com/host/0B-1rUiMKBiO4RXQzNUNjS0JGWmM/documentation/images/logo_nodejs.png"/>
  <path stroke-linejoin="null" stroke-linecap="null" fill="#9ff72c" d="m211.29199,98.02901l-18.29199,4.91399l0,44.785l164.271,0.114l20.733,-5.028l0,-44.78499l-166.71201,0l0,0l0,0l0,0l0,0zm146.97501,4.83299l0,44.98601m0,-44.98601l20.733,-4.927m-20.733,5.14201l-165.06799,-0.215" id="svg_2" stroke="#000000"/>
  <text xml:space="preserve" text-anchor="middle" font-family="Cursive" font-size="10" id="svg_16" y="127" x="275" stroke-linecap="null" stroke-linejoin="null" stroke="#000000" fill="#000000">express</text>
  <image x="196.33334" y="106.66666" width="43" height="37" id="svg_25" xlink:href="https://6a1f1411b70ea966ae7d011616f2d38c2be1f67d-www.googledrive.com/host/0B-1rUiMKBiO4RXQzNUNjS0JGWmM/documentation/images/processus.png"/>
  <ellipse stroke="#000000" stroke-linejoin="null" stroke-linecap="null" ry="8.5" rx="9" id="svg_1" cy="127.5" cx="120" fill="#9ff72c"/>
  <line id="svg_5" y2="128" x2="192" y1="129" x1="129" stroke-linecap="null" stroke-linejoin="null" stroke-dasharray="null" stroke="#000000" fill="none"/>
  <text id="svg_9" xml:space="preserve" text-anchor="middle" font-family="Cursive" font-size="10" y="102" x="112.5" stroke-linecap="null" stroke-linejoin="null" stroke-width="0" stroke="#000000" fill="#000000">http or https</text>
  <text id="svg_10" xml:space="preserve" text-anchor="middle" font-family="Cursive" font-size="10" y="474" x="569.5" stroke-linecap="null" stroke-linejoin="null" stroke-width="0" stroke="#000000" fill="#000000">server.js</text>
  <path stroke="#000000" id="svg_11" stroke-linejoin="null" stroke-linecap="null" fill="#9ff72c" d="m249.26817,159.13751l-13.76817,4.91397l0,44.785l123.64484,0.114l15.6055,-5.02803l0,-44.78496l-125.48216,0l0,0l0,0l0,0l0,0l0,0.00002zm110.62633,4.83298l0,44.98602m0,-44.98602l15.6055,-4.927m-15.6055,5.142l-124.24471,-0.215"/>
  <text id="svg_12" xml:space="preserve" text-anchor="middle" font-family="Cursive" font-size="10" y="191" x="302.5" stroke-linecap="null" stroke-linejoin="null" fill="#000000" stroke="#000000">routes.js</text>
  <line marker-start="url(#se_marker_start_svg_13)" stroke="#000000" transform="rotate(-89.2335433959961 312.16290283203125,342.94866943359375) " id="svg_13" y2="342.44865" x2="443.62052" y1="343.44865" x1="180.7053" stroke-linecap="null" stroke-linejoin="null" stroke-dasharray="null" fill="none"/>
  <line stroke="#000000" marker-end="url(#se_marker_end_svg_14)" id="svg_14" y2="229.5" x2="310" y1="229.5" x1="62" stroke-linecap="null" stroke-linejoin="null" stroke-dasharray="null" fill="none"/>
  <text id="svg_15" xml:space="preserve" text-anchor="middle" font-family="Cursive" font-size="10" y="222" x="118.5" stroke-linecap="null" stroke-linejoin="null" stroke-width="0" stroke="#000000" fill="#000000">service call (REST)</text>
  <line marker-start="url(#se_marker_start_svg_17)" id="svg_17" stroke="#000000" y2="251" x2="310.5" y1="251" x1="62.5" stroke-linecap="null" stroke-linejoin="null" stroke-dasharray="null" fill="none"/>
  <text id="svg_18" xml:space="preserve" text-anchor="middle" font-family="Cursive" font-size="10" y="245" x="118.5" stroke-linecap="null" stroke-linejoin="null" stroke-width="0" stroke="#000000" fill="#000000">json answer</text>
  <line marker-end="url(#se_marker_end_svg_19)" id="svg_19" stroke="#000000" y2="354.25" x2="439.25" y1="354.25" x1="191.25" stroke-linecap="null" stroke-linejoin="null" stroke-dasharray="null" fill="none"/>
  <text style="cursor: move;" id="svg_20" xml:space="preserve" text-anchor="middle" font-family="Cursive" font-size="10" y="347.75" x="244.75" stroke-linecap="null" stroke-linejoin="null" stroke-width="0" stroke="#000000" fill="#000000">static html in public part</text>
  <line id="svg_21" marker-start="url(#se_marker_start_svg_17)" stroke="#000000" y2="375.75" x2="439.75" y1="375.75" x1="191.75" stroke-linecap="null" stroke-linejoin="null" stroke-dasharray="null" fill="none"/>
  <text id="svg_22" xml:space="preserve" text-anchor="middle" font-family="Cursive" font-size="10" y="369.75" x="247.75" stroke-linecap="null" stroke-linejoin="null" stroke-width="0" stroke="#000000" fill="#000000">html</text>
  <path id="svg_23" stroke="#000000" stroke-linejoin="null" stroke-linecap="null" fill="#9ff72c" d="m379.26816,158.13751l-13.76816,4.91397l0,44.785l123.64484,0.114l15.6055,-5.02803l0,-44.78496l-125.48218,0l0,0l0,0l0,0l0,0l0,0.00002zm110.62634,4.83298l0,44.98602m0,-44.98602l15.6055,-4.927m-15.6055,5.142l-124.24469,-0.215"/>
  <text font-weight="normal" id="svg_24" xml:space="preserve" text-anchor="middle" font-family="Cursive" font-size="10" y="191" x="425.5" stroke-linecap="null" stroke-linejoin="null" stroke="#000000" fill="#000000">http / https</text>
  <line id="svg_27" marker-start="url(#se_marker_start_svg_27)" stroke="#000000" transform="rotate(-89.2335433959961 435.5,340) " y2="339.5" x2="566.95761" y1="340.5" x1="304.0424" stroke-linecap="null" stroke-linejoin="null" stroke-dasharray="null" fill="none"/>
  <line stroke="#000000" id="svg_28" marker-end="url(#se_marker_end_svg_28)" y2="284" x2="434.5" y1="284" x1="318.5" stroke-linecap="null" stroke-linejoin="null" stroke-dasharray="null" fill="none"/>
  <rect stroke="#000000" id="svg_31" height="42" width="106" y="347" x="449" stroke-linecap="null" stroke-linejoin="null" stroke-dasharray="null" fill="#9ff72c"/>
  <text id="svg_33" xml:space="preserve" text-anchor="middle" font-family="Cursive" font-size="10" y="372" x="498.5" stroke-linecap="null" stroke-linejoin="null" stroke-width="0" stroke="#000000" fill="#000000">documentation</text>
 </g>
</svg>