<svg width="800" height="600" xmlns="http://www.w3.org/2000/svg" xmlns:xlink="http://www.w3.org/1999/xlink">
 <!-- Created with SVG-edit - http://svg-edit.googlecode.com/ -->
 <title>Architecture</title>
 <g>
  <title>Kernel</title>
  <rect id="svg_59" height="412" width="278" y="76" x="301.00001" stroke-linecap="null" stroke-linejoin="null" stroke="#000000" fill="#9ff72c"/>
  <g id="svg_46">
   <path id="svg_42" stroke-linejoin="null" stroke-linecap="null" fill="#9ff72c" d="m356.03009,395.02902l-16.03009,4.91397l0,44.785l143.95792,0.11401l18.16928,-5.02802l0,-44.78497l-146.09711,0l0,0l0,0l0,0zm128.80063,4.83298l0,44.98599m0,-44.98599l18.16928,-4.927m-18.16928,5.142l-144.65631,-0.215" stroke="#000000"/>
   <text id="svg_43" xml:space="preserve" text-anchor="middle" font-family="Cursive" font-size="10" y="426" x="423" stroke-linecap="null" stroke-linejoin="null" stroke-width="0" stroke="#000000" fill="#000000">rest services</text>
  </g>
  <g id="html">
   <path id="svg_38" stroke-linejoin="null" stroke-linecap="null" fill="#9ff72c" d="m356.93173,347.02902l-15.93173,4.91397l0,44.785l143.07474,0.11401l18.0578,-5.02802l0,-44.78497l-145.20081,0l0,0l0,0l0,0zm128.01047,4.83298l0,44.98599m0,-44.98599l18.0578,-4.927m-18.0578,5.142l-143.76886,-0.215" stroke="#000000"/>
   <text id="svg_39" xml:space="preserve" text-anchor="middle" font-family="Cursive" font-size="10" y="378" x="424" stroke-linecap="null" stroke-linejoin="null" stroke-width="0" stroke="#000000" fill="#000000">html</text>
  </g>
  <polygon id="svg_29" fill="none"/>
  <image x="394.66668" y="470" width="101" height="72" id="svg_26" xlink:href="https://6a1f1411b70ea966ae7d011616f2d38c2be1f67d-www.googledrive.com/host/0B-1rUiMKBiO4RXQzNUNjS0JGWmM/documentation/images/logo_nodejs.png"/>
  <image x="533" y="151" width="225" height="212" id="svg_15" xlink:href="https://6a1f1411b70ea966ae7d011616f2d38c2be1f67d-www.googledrive.com/host/0B-1rUiMKBiO4RXQzNUNjS0JGWmM/documentation/images/machine-icons.jpg"/>
  <image x="79" y="206" width="64" height="71" id="svg_13" xlink:href="https://6a1f1411b70ea966ae7d011616f2d38c2be1f67d-www.googledrive.com/host/0B-1rUiMKBiO4RXQzNUNjS0JGWmM/documentation/images/java.png"/>
  <image x="82" y="114" width="69" height="72" id="svg_14" xlink:href="https://6a1f1411b70ea966ae7d011616f2d38c2be1f67d-www.googledrive.com/host/0B-1rUiMKBiO4RXQzNUNjS0JGWmM/documentation/images/app-x-ms-dos-executable.png"/>
  <image x="36" y="351.00001" width="121.99999" height="91.99999" id="svg_20" xlink:href="https://6a1f1411b70ea966ae7d011616f2d38c2be1f67d-www.googledrive.com/host/0B-1rUiMKBiO4RXQzNUNjS0JGWmM/documentation/images/streamline.png"/>
  <path stroke-linejoin="null" stroke-linecap="null" fill="#9ff72c" d="m284.51422,370.27322c0.00064,-0.26083 0.25671,-1.85779 0.56827,-3.54968c0.97351,-5.27679 0.98737,-5.30002 2.22287,-3.61819l0.73129,0.9949l2.13708,-0.98422c2.82742,-1.30161 6.20135,-1.78302 9.30267,-1.32736c1.31604,0.19293 2.71326,0.50717 3.104,0.69824c0.77615,0.37836 0.72598,0.70389 -0.51086,3.33789c-0.6778,1.44363 -0.74249,1.4845 -1.91333,1.21045c-1.99319,-0.46756 -5.23709,-0.3205 -6.80392,0.30798l-1.46918,0.58951l1.03094,0.98172c0.56757,0.53986 0.88898,1.06149 0.71411,1.15955c-0.17426,0.09866 -2.29614,0.29034 -4.71637,0.42612c-3.62933,0.20425 -4.3989,0.16464 -4.39758,-0.2269l0,0l0,0l0,0zm18.69186,14.54822l-1.57278,-1.89929l1.43219,-1.26324c1.47314,-1.29907 2.53641,-3.12424 3.00433,-5.15799l0.2673,-1.16022l-1.54111,0.2244c-0.84744,0.12381 -1.54639,0.10745 -1.55298,-0.03583c-0.02972,-0.6687 4.00027,-7.26093 4.3923,-7.18359c0.61578,0.12003 6.86465,5.05615 6.86465,5.42194c0,0.16342 -0.65671,0.39282 -1.45926,0.5097l-1.45926,0.21304l-0.14453,2.2695c-0.18481,2.91049 -1.86649,6.26978 -4.20816,8.40536c-0.93787,0.85538 -1.87311,1.55551 -2.0777,1.55551c-0.20526,0 -1.08041,-0.85474 -1.94501,-1.89929l0,0zm-14.19528,5.32391c0,-0.21054 0.2475,-0.81766 0.54913,-1.35062c0.54779,-0.96597 0.54446,-0.9704 -1.49756,-2.20663c-3.19574,-1.93573 -5.5704,-5.36978 -6.3175,-9.13504l-0.24487,-1.23499l1.74637,-0.21808c3.59964,-0.45001 3.63263,-0.43616 4.35336,1.80124c0.48642,1.50964 1.08502,2.41464 2.37466,3.59116c0.94843,0.86481 1.85724,1.49771 2.01895,1.40656c0.16168,-0.09109 0.396,-0.63098 0.52072,-1.19913c0.12476,-0.56754 0.38412,-1.03198 0.57751,-1.03198c0.4422,0 4.61273,5.99576 4.67874,6.72794c0.04422,0.48898 -2.20969,1.33554 -8.08502,3.03622c-0.37421,0.10812 -0.6745,0.02515 -0.6745,-0.18665l0,0l0,0z" stroke="#000000" id="svg_21"/>
  <g id="listener">
   <path stroke-linejoin="null" stroke-linecap="null" fill="#9ff72c" d="m335.29199,169.02899l-18.29199,4.91402l0,44.78499l164.271,0.114l20.733,-5.028l0,-44.785l-166.71201,0l0,0l0,0l0,0zm146.97501,4.83301l0,44.98601m0,-44.98601l20.733,-4.927m-20.733,5.14201l-165.06799,-0.21501" id="svg_2" stroke="#000000"/>
   <text xml:space="preserve" text-anchor="middle" font-family="Cursive" font-size="10" id="svg_16" y="200" x="400" stroke-linecap="null" stroke-linejoin="null" stroke-width="0" stroke="#000000" fill="#000000">listener</text>
  </g>
  <g id="server">
   <path id="svg_27" stroke-linejoin="null" stroke-linecap="null" fill="#9ff72c" d="m335.29199,298.02902l-18.29199,4.91397l0,44.785l164.271,0.11401l20.73303,-5.02802l0,-44.78497l-166.71204,0l0,0l0,0l0,0zm146.97501,4.83298l0,44.98599m0,-44.98599l20.733,-4.927m-20.733,5.142l-165.06799,-0.215" stroke="#000000"/>
   <text id="svg_28" xml:space="preserve" text-anchor="middle" font-family="Cursive" font-size="10" y="329" x="400" stroke-linecap="null" stroke-linejoin="null" stroke-width="0" stroke="#000000" fill="#000000">http / https server</text>
  </g>
  <g id="events_processor">
   <path id="svg_33" stroke-linejoin="null" stroke-linecap="null" fill="#9ff72c" d="m335.29166,234.02881l-18.29166,4.91385l0,44.78531l164.27124,0.11371l20.7326,-5.02747l0,-44.78546l-166.71219,0l0,0l0,0.00006zm146.97543,4.83307l0,44.98663m0,-44.98663l20.73291,-4.92688m-20.73291,5.14185l-165.06857,-0.21497" stroke="#000000"/>
   <text id="svg_34" xml:space="preserve" text-anchor="middle" font-family="Cursive" font-size="10" y="265" x="400" stroke-linecap="null" stroke-linejoin="null" stroke-width="0" stroke="#000000" fill="#000000">events processor</text>
  </g>
  <path id="svg_45" stroke-linejoin="null" stroke-linecap="null" fill="#9ff72c" d="m284.51422,420.27322c0.00064,-0.26083 0.25671,-1.85779 0.56827,-3.54968c0.97351,-5.27679 0.98737,-5.30002 2.22287,-3.61819l0.73129,0.9949l2.13708,-0.98422c2.82742,-1.30161 6.20135,-1.78302 9.30267,-1.32736c1.31604,0.19293 2.71326,0.50717 3.104,0.69824c0.77615,0.37836 0.72598,0.70389 -0.51086,3.33789c-0.6778,1.44363 -0.74249,1.4845 -1.91333,1.21045c-1.99319,-0.46756 -5.23709,-0.3205 -6.80392,0.30798l-1.46918,0.58951l1.03094,0.98172c0.56757,0.53986 0.88898,1.06149 0.71411,1.15955c-0.17426,0.09866 -2.29614,0.29034 -4.71637,0.42612c-3.62933,0.20425 -4.3989,0.16464 -4.39758,-0.2269l0,0l0,0l0,0zm18.69186,14.54822l-1.57278,-1.89929l1.43219,-1.26324c1.47314,-1.29907 2.53641,-3.12424 3.00433,-5.15799l0.2673,-1.16022l-1.54111,0.2244c-0.84744,0.12381 -1.54639,0.10745 -1.55298,-0.03583c-0.02972,-0.6687 4.00027,-7.26093 4.3923,-7.18359c0.61578,0.12003 6.86465,5.05615 6.86465,5.42194c0,0.16342 -0.65671,0.39282 -1.45926,0.5097l-1.45926,0.21304l-0.14453,2.2695c-0.18481,2.91049 -1.86649,6.26978 -4.20816,8.40536c-0.93787,0.85538 -1.87311,1.55551 -2.0777,1.55551c-0.20526,0 -1.08041,-0.85474 -1.94501,-1.89929l0,0zm-14.19528,5.32391c0,-0.21054 0.2475,-0.81766 0.54913,-1.35062c0.54779,-0.96597 0.54446,-0.9704 -1.49756,-2.20663c-3.19574,-1.93573 -5.5704,-5.36978 -6.3175,-9.13504l-0.24487,-1.23499l1.74637,-0.21808c3.59964,-0.45001 3.63263,-0.43616 4.35336,1.80124c0.48642,1.50964 1.08502,2.41464 2.37466,3.59116c0.94843,0.86481 1.85724,1.49771 2.01895,1.40656c0.16168,-0.09109 0.396,-0.63098 0.52072,-1.19913c0.12476,-0.56754 0.38412,-1.03198 0.57751,-1.03198c0.4422,0 4.61273,5.99576 4.67874,6.72794c0.04422,0.48898 -2.20969,1.33554 -8.08502,3.03622c-0.37421,0.10812 -0.6745,0.02515 -0.6745,-0.18665l0,0l0,0z" stroke="#000000"/>
  <path id="svg_47" stroke-linejoin="null" stroke-linecap="null" fill="#9ff72c" d="m284.51422,189.27322c0.00064,-0.26083 0.25671,-1.85779 0.56827,-3.54968c0.97351,-5.27679 0.98737,-5.30002 2.22287,-3.61819l0.73129,0.9949l2.13708,-0.98422c2.82742,-1.30161 6.20135,-1.78302 9.30267,-1.32736c1.31604,0.19293 2.71326,0.50717 3.104,0.69824c0.77615,0.37836 0.72598,0.70389 -0.51086,3.33789c-0.6778,1.44363 -0.74249,1.4845 -1.91333,1.21045c-1.99319,-0.46756 -5.23709,-0.3205 -6.80392,0.30798l-1.46918,0.58951l1.03094,0.98172c0.56757,0.53986 0.88898,1.06149 0.71411,1.15955c-0.17426,0.09866 -2.29614,0.29034 -4.71637,0.42612c-3.62933,0.20425 -4.3989,0.16464 -4.39758,-0.2269l0,0l0,0l0,0zm18.69186,14.54822l-1.57278,-1.89929l1.43219,-1.26324c1.47314,-1.29907 2.53641,-3.12424 3.00433,-5.15799l0.2673,-1.16022l-1.54111,0.2244c-0.84744,0.12381 -1.54639,0.10745 -1.55298,-0.03583c-0.02972,-0.6687 4.00027,-7.26093 4.3923,-7.18359c0.61578,0.12003 6.86465,5.05615 6.86465,5.42194c0,0.16342 -0.65671,0.39282 -1.45926,0.5097l-1.45926,0.21304l-0.14453,2.2695c-0.18481,2.91049 -1.86649,6.26978 -4.20816,8.40536c-0.93787,0.85538 -1.87311,1.55551 -2.0777,1.55551c-0.20526,0 -1.08041,-0.85474 -1.94501,-1.89929l0,0zm-14.19528,5.32391c0,-0.21054 0.2475,-0.81766 0.54913,-1.35062c0.54779,-0.96597 0.54446,-0.9704 -1.49756,-2.20663c-3.19574,-1.93573 -5.5704,-5.36978 -6.3175,-9.13504l-0.24487,-1.23499l1.74637,-0.21808c3.59964,-0.45001 3.63263,-0.43616 4.35336,1.80124c0.48642,1.50964 1.08502,2.41464 2.37466,3.59116c0.94843,0.86481 1.85724,1.49771 2.01895,1.40656c0.16168,-0.09109 0.396,-0.63098 0.52072,-1.19913c0.12476,-0.56754 0.38412,-1.03198 0.57751,-1.03198c0.4422,0 4.61273,5.99576 4.67874,6.72794c0.04422,0.48898 -2.20969,1.33554 -8.08502,3.03622c-0.37421,0.10812 -0.6745,0.02515 -0.6745,-0.18665l0,0l0,0z" stroke="#000000"/>
  <path transform="rotate(90 456.22998046875,259.8678283691407) " id="svg_48" d="m388.22998,259.86826l39.42871,-16.52074l0,8.26038l57.14258,0l0,-8.26038l39.42871,16.52074l-39.42871,16.51987l0,-8.25949l-57.14258,0l0,8.25949l-39.42871,-16.51987z" stroke-linecap="null" stroke-linejoin="null" stroke="#000000" fill="#9ff72c"/>
  <path id="svg_49" d="m147.22998,398.86826l39.42871,-16.52072l0,8.26038l57.14258,0l0,-8.26038l39.42871,16.52072l-39.42871,16.51987l0,-8.25949l-57.14258,0l0,8.25949l-39.42871,-16.51987z" stroke-linecap="null" stroke-linejoin="null" stroke="#000000" fill="#9ff72c"/>
  <path id="svg_51" d="m132.22998,196.86826l39.42871,-16.52072l0,8.26038l57.14258,0l0,-8.26038l39.42871,16.52072l-39.42871,16.51987l0,-8.25949l-57.14258,0l0,8.25949l-39.42871,-16.51987z" stroke-linecap="null" stroke-linejoin="null" stroke="#000000" fill="#9ff72c"/>
  <path id="svg_53" stroke-linejoin="null" stroke-linecap="null" fill="#9ff72c" d="m494.67068,234.02881l-7.67068,4.91385l0,44.78531l68.88794,0.11371l8.69434,-5.02747l0,-44.78546l-69.91159,0l0,0l0,0.00006zm61.63486,4.83307l0,44.98663m0,-44.98663l8.69446,-4.92688m-8.69446,5.14185l-69.22229,-0.21497" stroke="#000000"/>
  <text id="svg_54" xml:space="preserve" text-anchor="middle" font-family="Cursive" font-size="10" y="265" x="520" stroke-linecap="null" stroke-linejoin="null" stroke-width="0" stroke="#000000" fill="#000000">plugins</text>
  <text transform="rotate(-90 66.00000000000001,197) " xml:space="preserve" text-anchor="middle" font-family="Cursive" font-size="10" id="svg_56" y="201" x="66" stroke-linecap="null" stroke-linejoin="null" stroke-width="0" stroke="#000000" fill="#000000">jarvis clients</text>
  <text xml:space="preserve" text-anchor="middle" font-family="Cursive" font-size="10" id="svg_57" y="169" x="199" stroke-linecap="null" stroke-linejoin="null" stroke-width="0" stroke="#000000" fill="#000000">raw json protocol</text>
  <text id="svg_58" xml:space="preserve" text-anchor="middle" font-family="Cursive" font-size="10" y="344" x="222" stroke-linecap="null" stroke-linejoin="null" stroke-width="0" stroke="#000000" fill="#000000">http / https protocol</text>
  <image x="320.33334" y="177.66666" width="43" height="37" id="svg_25" xlink:href="https://6a1f1411b70ea966ae7d011616f2d38c2be1f67d-www.googledrive.com/host/0B-1rUiMKBiO4RXQzNUNjS0JGWmM/documentation/images/processus.png"/>
  <image id="svg_60" x="316.33334" y="240.66666" width="43" height="37" xlink:href="https://6a1f1411b70ea966ae7d011616f2d38c2be1f67d-www.googledrive.com/host/0B-1rUiMKBiO4RXQzNUNjS0JGWmM/documentation/images/processus.png"/>
  <image id="svg_61" x="316.33334" y="306.66666" width="43" height="37" xlink:href="https://6a1f1411b70ea966ae7d011616f2d38c2be1f67d-www.googledrive.com/host/0B-1rUiMKBiO4RXQzNUNjS0JGWmM/documentation/images/processus.png"/>
 </g>
</svg>