<svg width="800" height="600" xmlns="http://www.w3.org/2000/svg" xmlns:svg="http://www.w3.org/2000/svg" xmlns:xlink="http://www.w3.org/1999/xlink">
 <!-- Created with SVG-edit - http://svg-edit.googlecode.com/ -->
 <title>Architecture</title>
 <g>
  <title>Kernel</title>
  <polygon fill="none" id="svg_29"/>
  <image xlink:href="https://6a1f1411b70ea966ae7d011616f2d38c2be1f67d-www.googledrive.com/host/0B-1rUiMKBiO4RXQzNUNjS0JGWmM/documentation/images/logo_nodejs.png" id="svg_26" height="72" width="101" y="47" x="381.66668"/>
  <image xlink:href="https://6a1f1411b70ea966ae7d011616f2d38c2be1f67d-www.googledrive.com/host/0B-1rUiMKBiO4RXQzNUNjS0JGWmM/documentation/images/processus.png" id="svg_25" height="37" width="43" y="67.66666" x="336.33334"/>
  <text id="svg_40" stroke="#000000" transform="matrix(0.6290950293183701,0,0,0.6134164323709969,-35.14679873509451,118.49185105727427) " fill="#000000" stroke-width="0" stroke-dasharray="null" stroke-linejoin="null" stroke-linecap="null" x="826.81963" y="40.30745" font-size="24" font-family="Cursive" text-anchor="middle" xml:space="preserve">listener start</text>
  <line stroke="#000000" fill="none" stroke-width="5" stroke-dasharray="null" stroke-linejoin="null" stroke-linecap="null" x1="362" y1="165" x2="363" y2="192" id="svg_1"/>
  <path stroke="#000000" id="svg_2" d="m319.91599,116.02879l-10.91599,4.91386l0,44.78531l98.03284,0.11371l12.37268,-5.02748l0,-44.78543l-99.48953,0l0,0l0,0.00003zm87.71115,4.83308l0,44.98659m0,-44.98659l12.37286,-4.92688m-12.37286,5.14185l-98.50867,-0.21497" stroke-width="5" fill="#FF0000"/>
  <path id="svg_3" stroke="#000000" d="m319.91599,188.63705l-10.91599,4.91388l0,44.78531l98.03284,0.11371l12.37268,-5.0275l0,-44.78543l-99.48953,0l0,0l0,0.00003zm87.71115,4.8331l0,44.98657m0,-44.98657l12.37286,-4.92688m-12.37286,5.14185l-98.50867,-0.21497" stroke-width="5" fill="#FF0000"/>
  <line id="svg_5" stroke="#000000" fill="none" stroke-width="5" stroke-dasharray="null" stroke-linejoin="null" stroke-linecap="null" x1="363" y1="236.77164" x2="364" y2="263.77164"/>
  <path id="svg_6" stroke="#000000" d="m320.91599,260.40869l-10.91599,4.91388l0,44.78531l98.03284,0.11371l12.37268,-5.0275l0,-44.78543l-99.48953,0l0,0l0,0.00003zm87.71115,4.8331l0,44.98657m0,-44.98657l12.37286,-4.92688m-12.37286,5.14185l-98.50867,-0.21497" stroke-width="5" fill="#FF0000"/>
  <text id="svg_7" stroke="#000000" transform="matrix(0.6290950293183701,0,0,0.6134164323709969,-35.14679873509451,118.49185105727427) " fill="#000000" stroke-width="0" stroke-dasharray="null" stroke-linejoin="null" stroke-linecap="null" x="809.47459" y="158.01936" font-size="24" font-family="Cursive" text-anchor="middle" xml:space="preserve">routes init</text>
  <text id="svg_8" stroke="#000000" transform="matrix(0.6290950293183701,0,0,0.6134164323709969,-35.14679873509451,118.49185105727427) " fill="#000000" stroke-width="0" stroke-dasharray="null" stroke-linejoin="null" stroke-linecap="null" x="905.2057" y="278.65623" font-size="24" font-family="Cursive" text-anchor="middle" xml:space="preserve">http and https server start</text>
  <path id="svg_9" stroke="#000000" d="m322.91599,339.63705l-10.91599,4.91388l0,44.78531l98.03284,0.11371l12.37268,-5.0275l0,-44.78543l-99.48953,0l0,0l0,0.00003zm87.71115,4.8331l0,44.98657m0,-44.98657l12.37286,-4.92688m-12.37286,5.14185l-98.50867,-0.21497" stroke-width="5" fill="#FF0000"/>
  <line id="svg_10" stroke="#000000" fill="none" stroke-width="5" stroke-dasharray="null" stroke-linejoin="null" stroke-linecap="null" x1="364" y1="311" x2="365" y2="338"/>
  <path stroke="#000000" transform="rotate(-90.99745178222656 274.7199707031249,365.54998779296864) " id="svg_11" d="m251.42679,391.2955l0,-28.96371l0,0c0,-12.44064 9.12521,-22.52734 20.38156,-22.52734l0,0l0,0c5.4053,0 10.58954,2.37436 14.4118,6.59824c3.82227,4.22543 5.96976,9.95471 5.96976,15.92911l0,3.21982l5.8233,0l-11.64661,12.87119l-11.64658,-12.87119l5.82327,0l0,-3.21982c0,-5.3317 -3.91113,-9.65302 -8.73495,-9.65302l0,0l0,0c-4.82382,0 -8.73499,4.32132 -8.73499,9.65302l0,28.96371l-11.64664,0l0.00003,0l0.00003,0z" stroke-linecap="null" stroke-linejoin="null" stroke-dasharray="null" stroke-width="5" fill="#FF0000"/>
  <image xlink:href="https://6a1f1411b70ea966ae7d011616f2d38c2be1f67d-www.googledrive.com/host/0B-1rUiMKBiO4RXQzNUNjS0JGWmM/documentation/images/machine-icons.jpg" id="svg_15" height="212" width="225" y="314" x="547"/>
  <text id="svg_12" stroke="#000000" transform="matrix(0.6290950293183701,0,0,0.6134164323709969,-35.14679873509451,118.49185105727427) " fill="#000000" stroke-width="0" stroke-dasharray="null" stroke-linejoin="null" stroke-linecap="null" x="834.10552" y="407.43928" font-size="24" font-family="Cursive" text-anchor="middle" xml:space="preserve">process events</text>
  <image xlink:href="https://6a1f1411b70ea966ae7d011616f2d38c2be1f67d-www.googledrive.com/host/0B-1rUiMKBiO4RXQzNUNjS0JGWmM/documentation/images/java.png" id="svg_13" height="71" width="64" y="107" x="30"/>
  <image xlink:href="https://6a1f1411b70ea966ae7d011616f2d38c2be1f67d-www.googledrive.com/host/0B-1rUiMKBiO4RXQzNUNjS0JGWmM/documentation/images/app-x-ms-dos-executable.png" id="svg_14" height="72" width="69" y="104" x="96"/>
  <path stroke="#000000" id="svg_4" d="m219.47682,133.20386c0.00153,-0.41489 0.38907,-2.95663 0.86168,-5.64856c1.47446,-8.39569 1.49594,-8.43246 3.36777,-5.75684l1.10735,1.58328l3.2388,-1.56613c4.28366,-2.07101 9.39574,-2.83694 14.09413,-2.11227c1.99463,0.3074 4.11111,0.80746 4.70297,1.11108c1.17599,0.60257 1.10074,1.11987 -0.77307,5.31113c-1.02695,2.29675 -1.12585,2.36234 -2.89923,1.92596c-3.01974,-0.7438 -7.93567,-0.51001 -10.30922,0.49033l-2.22552,0.93741l1.56204,1.56223c0.85909,0.85907 1.34602,1.68954 1.0818,1.84564c-0.26466,0.15683 -3.47981,0.4617 -7.14619,0.67758c-5.49959,0.32465 -6.66484,0.26172 -6.6633,-0.36084l0,0zm28.32094,23.14786l-2.38275,-3.02234l2.16974,-2.00937c2.2327,-2.06708 3.8429,-4.97083 4.55243,-8.20682l0.40448,-1.84656l-2.33459,0.3569c-1.28455,0.19708 -2.34335,0.17151 -2.353,-0.05682c-0.04507,-1.064 6.06125,-11.55286 6.6546,-11.43036c0.93335,0.19131 10.40134,8.04529 10.40134,8.62772c0,0.25989 -0.9953,0.62473 -2.21115,0.81088l-2.21133,0.33844l-0.21869,3.6116c-0.27945,4.63049 -2.82803,9.97598 -6.37598,13.37402c-1.42078,1.36102 -2.83743,2.4751 -3.14819,2.4751c-0.3103,0 -1.63629,-1.36014 -2.9469,-3.0224l0,0zm-21.50763,8.47076c0,-0.33447 0.37476,-1.30127 0.83203,-2.14853c0.8299,-1.5368 0.82523,-1.54456 -2.2691,-3.51169c-4.84174,-3.07932 -8.44043,-8.54337 -9.57242,-14.53503l-0.37065,-1.9642l2.64589,-0.34711c5.45407,-0.71591 5.50369,-0.69437 6.59631,2.86533c0.7372,2.40274 1.64394,3.84213 3.59811,5.71426c1.43661,1.37576 2.81339,2.3829 3.05853,2.23773c0.24524,-0.14496 0.60063,-1.0032 0.78951,-1.90726c0.18839,-0.90326 0.58211,-1.64252 0.87444,-1.64252c0.67072,0 6.98946,9.54062 7.08929,10.70551c0.06706,0.77771 -3.34827,2.12512 -12.25006,4.83063c-0.56712,0.17258 -1.02188,0.04022 -1.02188,-0.29712l0,0z" stroke-width="5" fill="#FF0000"/>
  <text id="svg_17" stroke="#000000" transform="matrix(0.6290950293183701,0,0,0.6134164323709969,-35.14679873509451,118.49185105727427) " fill="#000000" stroke-width="0" stroke-dasharray="null" stroke-linejoin="null" stroke-linecap="null" x="431.80787" y="-24.55831" font-size="24" font-family="Cursive" text-anchor="middle" xml:space="preserve">raw json protocol</text>
  <text id="svg_18" stroke="#000000" transform="matrix(0.6290950293183701,0,0,0.6134164323709969,-35.14679873509451,118.49185105727427) " fill="#000000" stroke-width="0" stroke-dasharray="null" stroke-linejoin="null" stroke-linecap="null" x="217.20965" y="128.67516" font-size="24" font-family="Cursive" text-anchor="middle" xml:space="preserve">jarvis clients</text>
  <path id="svg_19" stroke="#000000" d="m472.06683,393.38815c0.00153,-0.41489 0.38904,-2.95663 0.86166,-5.64856c1.47446,-8.39569 1.49594,-8.43246 3.36777,-5.75684l1.10736,1.58328l3.23877,-1.56613c4.28369,-2.07101 9.39575,-2.83694 14.09415,-2.11227c1.99463,0.3074 4.11111,0.80746 4.70297,1.11108c1.17603,0.60257 1.10077,1.11987 -0.77307,5.31113c-1.02695,2.29675 -1.12585,2.36234 -2.89923,1.92596c-3.01974,-0.7438 -7.93567,-0.51001 -10.3092,0.49033l-2.22552,0.93741l1.56201,1.56223c0.8591,0.85907 1.34604,1.68954 1.08182,1.84564c-0.26468,0.15683 -3.4798,0.4617 -7.14618,0.67758c-5.4996,0.32465 -6.66486,0.26172 -6.6633,-0.36084l0,0zm28.32092,23.14786l-2.38275,-3.02234l2.16974,-2.00937c2.23273,-2.06708 3.8429,-4.97083 4.55243,-8.20682l0.40448,-1.84656l-2.33459,0.3569c-1.28455,0.19708 -2.34332,0.17151 -2.35297,-0.05682c-0.0451,-1.064 6.06122,-11.55286 6.6546,-11.43036c0.93329,0.19131 10.40131,8.04529 10.40131,8.62772c0,0.25989 -0.9953,0.62473 -2.21118,0.81088l-2.2113,0.33844l-0.21869,3.6116c-0.27948,4.63049 -2.82806,9.97598 -6.37598,13.37402c-1.42078,1.36102 -2.8374,2.4751 -3.14819,2.4751c-0.3103,0 -1.63629,-1.36014 -2.9469,-3.0224l0,0zm-21.50763,8.47076c0,-0.33447 0.37476,-1.30127 0.83203,-2.14853c0.8299,-1.5368 0.82523,-1.54456 -2.2691,-3.51169c-4.84174,-3.07932 -8.44043,-8.54337 -9.57242,-14.53503l-0.37067,-1.9642l2.6459,-0.34711c5.45407,-0.71591 5.50369,-0.69437 6.59631,2.86533c0.73718,2.40274 1.64395,3.84213 3.59811,5.71426c1.43661,1.37576 2.81339,2.3829 3.05853,2.23773c0.24524,-0.14496 0.60065,-1.0032 0.78952,-1.90726c0.18835,-0.90326 0.58209,-1.64252 0.87442,-1.64252c0.67072,0 6.98947,9.54062 7.08929,10.70551c0.06708,0.77771 -3.34827,2.12512 -12.25006,4.83063c-0.56711,0.17258 -1.02188,0.04022 -1.02188,-0.29712l0,0z" stroke-width="5" fill="#FF0000"/>
  <image stroke="null" xlink:href="https://6a1f1411b70ea966ae7d011616f2d38c2be1f67d-www.googledrive.com/host/0B-1rUiMKBiO4RXQzNUNjS0JGWmM/documentation/images/streamline.png" id="svg_20" height="91.99999" width="121.99999" y="239.00001" x="115"/>
  <path id="svg_21" stroke="#000000" d="m246.06683,280.38815c0.00153,-0.41489 0.38904,-2.95663 0.86166,-5.64856c1.47446,-8.39569 1.49594,-8.43246 3.36777,-5.75684l1.10736,1.58328l3.23877,-1.56613c4.28369,-2.07101 9.39575,-2.83694 14.09415,-2.11227c1.99463,0.3074 4.11111,0.80746 4.70297,1.11108c1.17599,0.60257 1.10074,1.11987 -0.77307,5.31113c-1.02695,2.29675 -1.12585,2.36234 -2.89923,1.92596c-3.01974,-0.7438 -7.93567,-0.51001 -10.3092,0.49033l-2.22552,0.93741l1.56201,1.56223c0.8591,0.85907 1.34604,1.68954 1.08182,1.84564c-0.26468,0.15683 -3.4798,0.4617 -7.14618,0.67758c-5.4996,0.32465 -6.66486,0.26172 -6.6633,-0.36084l0,0zm28.32092,23.14786l-2.38275,-3.02234l2.16974,-2.00937c2.2327,-2.06708 3.8429,-4.97083 4.55243,-8.20682l0.40448,-1.84656l-2.33459,0.3569c-1.28455,0.19708 -2.34335,0.17151 -2.353,-0.05682c-0.04507,-1.064 6.06125,-11.55286 6.6546,-11.43036c0.93335,0.19131 10.40134,8.04529 10.40134,8.62772c0,0.25989 -0.9953,0.62473 -2.21115,0.81088l-2.21133,0.33844l-0.21869,3.6116c-0.27945,4.63049 -2.82803,9.97598 -6.37598,13.37402c-1.42078,1.36102 -2.83743,2.4751 -3.14819,2.4751c-0.3103,0 -1.63629,-1.36014 -2.9469,-3.0224l0,0zm-21.50763,8.47076c0,-0.33447 0.37476,-1.30127 0.83203,-2.14853c0.8299,-1.5368 0.82523,-1.54456 -2.2691,-3.51169c-4.84174,-3.07932 -8.44043,-8.54337 -9.57242,-14.53503l-0.37067,-1.9642l2.6459,-0.34711c5.45407,-0.71591 5.50369,-0.69437 6.59631,2.86533c0.73718,2.40274 1.64395,3.84213 3.59811,5.71426c1.43661,1.37576 2.81339,2.3829 3.05853,2.23773c0.24524,-0.14496 0.60065,-1.0032 0.78952,-1.90726c0.18835,-0.90326 0.58209,-1.64252 0.87442,-1.64252c0.67072,0 6.98947,9.54062 7.08929,10.70551c0.06708,0.77771 -3.34827,2.12512 -12.25006,4.83063c-0.56711,0.17258 -1.02188,0.04022 -1.02188,-0.29712l0,0z" stroke-width="5" fill="#FF0000"/>
 </g>
</svg>